<?xml version="1.0" standalone="no"?>
<!DOCTYPE svg PUBLIC "-//W3C//DTD SVG 20010904//EN"
 "http://www.w3.org/TR/2001/REC-SVG-20010904/DTD/svg10.dtd">
<svg version="1.0" xmlns="http://www.w3.org/2000/svg"
 width="400.000000pt" height="400.000000pt" viewBox="0 0 400.000000 400.000000"
 preserveAspectRatio="xMidYMid meet">
<metadata>
Created by potrace 1.14, written by Peter Selinger 2001-2017
</metadata>
<g transform="translate(0.000000,400.000000) scale(0.100000,-0.100000)"
fill="#000000" stroke="none">
<path d="M0 2000 l0 -2000 665 0 665 0 0 29 c0 28 13 45 35 46 28 2 75 18 71
24 -3 4 5 7 17 6 18 -1 23 -10 30 -53 l9 -52 141 0 142 0 -3 92 c-3 84 -2 91
11 73 14 -18 17 -18 42 -5 19 10 28 11 33 2 10 -15 162 -25 162 -10 0 6 6 5
17 -3 9 -8 19 -14 22 -14 3 0 5 -3 4 -6 -3 -9 31 -7 43 3 8 5 14 3 18 -8 3 -9
12 -14 19 -11 27 10 42 -11 42 -63 l0 -50 153 0 c84 0 151 4 148 8 -15 25 47
49 73 28 11 -8 13 -8 7 2 -4 6 -2 12 3 12 6 0 11 -4 11 -10 0 -5 7 -7 15 -4 8
4 15 1 15 -5 0 -6 10 -12 23 -13 12 -1 -14 -5 -58 -8 -44 -3 259 -7 673 -8
l752 -2 0 2000 0 2000 -822 -1 c-453 -1 -811 -4 -796 -6 26 -4 26 -4 10 -36
-16 -29 -57 -79 -124 -149 -15 -15 -24 -28 -20 -28 4 0 0 -6 -9 -13 -9 -7 -17
-16 -18 -22 -3 -16 -45 -75 -53 -75 -5 0 -8 -6 -8 -14 0 -8 -14 -17 -31 -21
-18 -4 -34 -16 -39 -29 -8 -23 -78 -71 -88 -62 -3 3 -11 -2 -18 -12 -11 -14
-13 -14 -14 -2 0 9 -3 11 -8 5 -4 -6 -20 -18 -35 -28 -15 -10 -25 -22 -22 -27
4 -6 39 -10 78 -10 50 0 67 -3 57 -10 -8 -5 -43 -10 -77 -10 -73 0 -93 -6 -93
-29 0 -12 -2 -13 -9 -3 -6 11 -9 9 -13 -6 -3 -10 5 -37 18 -58 41 -67 26 -70
-32 -5 -62 68 -111 95 -194 106 -30 4 -62 11 -71 16 -19 10 -116 -18 -174 -50
-22 -12 -60 -43 -84 -69 -24 -26 -38 -38 -30 -27 26 39 84 97 107 106 12 5 22
13 22 20 0 10 -35 -8 -108 -58 -30 -20 -44 -22 -143 -20 l-108 2 -37 38 c-20
20 -45 37 -55 37 -11 0 -22 6 -25 14 -3 8 -19 17 -36 20 -27 5 -29 8 -17 23
13 15 14 15 17 0 3 -17 22 -24 22 -9 -1 12 -40 58 -40 46 0 -12 -30 -15 -30
-3 0 4 -13 10 -30 14 -16 4 -30 11 -30 17 0 6 -3 8 -7 5 -8 -9 -43 22 -43 39
0 12 -85 74 -102 74 -4 0 -8 12 -8 26 0 35 -37 99 -66 115 -13 7 -24 18 -24
25 0 6 -12 15 -27 19 -26 6 -85 64 -78 76 3 3 -8 12 -22 20 l-26 14 39 6 c21
3 -66 7 -193 8 l-233 1 0 -2000z m618 1724 c0 -18 -3 -22 -9 -13 -11 18 -11
39 0 39 5 0 9 -12 9 -26z m2062 -184 c10 -5 21 -23 25 -40 4 -16 11 -30 16
-30 5 0 9 -4 9 -8 0 -19 -60 -34 -159 -38 -58 -3 -142 -12 -186 -20 -107 -21
-139 -17 -143 18 -2 18 3 30 16 37 11 6 25 24 32 41 7 16 15 31 19 31 3 1 69
5 146 8 77 4 155 8 173 9 18 1 42 -2 52 -8z m93 -74 c4 -10 1 -13 -9 -9 -7 3
-14 9 -14 14 0 14 17 10 23 -5z m-533 -162 c0 -8 -4 -12 -10 -9 -5 3 -10 13
-10 21 0 8 5 12 10 9 6 -3 10 -13 10 -21z m668 -76 c12 -29 24 -66 27 -83 5
-29 5 -29 -11 5 -34 73 -53 130 -45 130 5 0 18 -24 29 -52z m-959 -86 c6 -29
11 -63 10 -75 -1 -12 -7 3 -13 33 -7 30 -16 69 -20 85 -5 19 -4 26 2 20 6 -5
15 -34 21 -63z m-311 -54 c28 -14 28 -24 1 -31 -15 -4 -20 -11 -16 -21 5 -12
0 -16 -19 -16 -14 0 -35 -6 -47 -12 -21 -12 -20 -13 18 -18 32 -4 41 -10 43
-27 2 -17 -3 -25 -20 -31 -38 -14 -310 -34 -321 -23 -20 20 4 51 50 62 30 8
40 15 32 20 -10 6 -7 11 11 18 20 8 12 10 -40 8 -63 -2 -65 -1 -65 22 0 20 8
27 51 41 28 9 56 14 62 12 6 -2 18 0 27 5 21 12 205 5 233 -9z m1553 -105
c-11 -33 -27 -105 -35 -159 -10 -74 -14 -87 -15 -52 -1 58 21 179 44 236 25
63 29 44 6 -25z m-1224 -50 c-2 -21 -4 -4 -4 37 0 41 2 58 4 38 2 -21 2 -55 0
-75z m-1550 -40 c4 -11 -64 -53 -87 -53 -24 0 -8 37 23 53 36 18 58 18 64 0z
m3321 -35 c73 -27 104 -49 90 -63 -2 -2 -37 7 -78 20 -41 13 -94 29 -117 35
-40 10 -53 26 -36 44 10 9 41 1 141 -36z m-1559 -167 c19 -54 22 -66 13 -56
-20 20 -42 121 -41 184 l2 66 8 -84 c4 -46 12 -96 18 -110z m-1182 112 c-3
-10 -5 -4 -5 12 0 17 2 24 5 18 2 -7 2 -21 0 -30z m898 -49 c-3 -18 -11 -36
-16 -40 -7 -4 -9 1 -6 12 3 11 9 42 13 69 7 41 9 45 12 21 2 -16 1 -44 -3 -62z
m-1468 29 c5 -15 -23 -30 -66 -35 -46 -4 -52 18 -9 37 37 17 70 16 75 -2z
m2477 -37 c-3 -21 -9 -35 -11 -32 -3 3 -2 21 1 42 4 20 10 34 12 31 3 -3 2
-21 -2 -41z m849 2 c37 -17 67 -37 67 -44 0 -18 1 -18 -110 12 -98 26 -128 43
-115 64 11 18 79 4 158 -32z m-1940 -68 c-10 -17 -19 -26 -21 -21 -5 14 17 51
29 51 6 0 2 -14 -8 -30z m933 -38 c-12 -11 -18 7 -10 30 l8 23 4 -23 c2 -13 1
-26 -2 -30z m-1348 -8 c-4 -3 -12 5 -18 18 -12 22 -12 22 6 6 10 -10 15 -20
12 -24z m377 -36 c6 -23 3 -27 -25 -33 -17 -4 -34 -5 -36 -2 -3 2 5 21 17 41
23 39 33 38 44 -6z m1432 -70 c-3 -7 -5 -2 -5 12 0 14 2 19 5 13 2 -7 2 -19 0
-25z m-1340 -5 c45 -48 67 -111 66 -183 -1 -36 7 -125 19 -198 11 -73 18 -135
15 -138 -8 -9 -93 -18 -85 -9 4 4 3 18 -2 30 -7 19 -5 25 8 29 9 3 -2 4 -25 2
-50 -5 -60 4 -33 29 11 10 20 27 20 38 0 10 6 42 14 70 26 96 27 125 4 147
-15 13 -22 38 -28 87 -4 37 -6 70 -4 72 2 2 -4 9 -13 16 -16 12 -11 35 8 35 6
0 22 -12 36 -27z m-1047 -43 c0 -5 -2 -10 -4 -10 -3 0 -8 5 -11 10 -3 6 -1 10
4 10 6 0 11 -4 11 -10z m2521 -88 c8 -20 5 -22 -26 -22 -27 0 -35 4 -35 18 0
24 6 29 32 27 12 -1 25 -11 29 -23z m-1187 -7 c-3 -8 0 -31 7 -52 8 -26 9 -38
1 -41 -7 -2 -9 -21 -5 -53 4 -36 2 -54 -9 -67 -8 -9 -21 -52 -28 -95 -7 -43
-17 -80 -22 -83 -17 -11 -56 6 -72 31 -16 24 -15 27 19 80 19 31 41 58 48 61
8 3 12 16 9 34 -5 32 13 145 28 186 6 14 14 23 20 19 5 -3 7 -12 4 -20z
m-1281 8 c-7 -2 -21 -2 -30 0 -10 3 -4 5 12 5 17 0 24 -2 18 -5z m332 -53
c-14 -29 -28 -50 -31 -48 -2 3 9 27 24 56 14 28 28 49 30 47 2 -2 -9 -26 -23
-55z m-264 3 c3 -18 9 -61 12 -95 l6 -63 -20 45 c-28 61 -49 131 -43 142 12
19 38 1 45 -29z m2079 -85 c7 -26 36 -80 67 -123 52 -74 61 -105 30 -105 -33
0 -130 249 -126 320 1 15 8 -7 29 -92z m190 -25 c0 -21 18 -79 37 -119 12 -25
12 -35 3 -50 -9 -15 -9 -30 -1 -59 10 -38 52 -95 70 -95 5 0 20 -11 33 -25 22
-22 25 -32 20 -73 -7 -73 -53 -109 -87 -70 -21 25 -81 206 -90 273 -3 28 -13
76 -21 107 -13 51 -13 61 2 97 16 40 34 47 34 14z m-2246 -127 c-10 -31 -21
-56 -24 -56 -4 0 -12 12 -19 26 -9 21 -9 30 1 42 17 22 52 51 56 47 2 -2 -4
-28 -14 -59z m761 -156 c4 -6 -6 -10 -24 -10 -16 0 -33 5 -36 10 -4 6 6 10 24
10 16 0 33 -4 36 -10z m229 -17 c3 -16 10 -77 16 -136 12 -122 10 -127 -67
-197 l-38 -35 36 40 c20 22 40 48 45 57 9 16 1 208 -10 271 -3 15 -1 27 3 27
5 0 12 -12 15 -27z"/>
</g>
</svg>
